HIERARCHY
ROOT Hips
{
  OFFSET 5.72205e-005 65.662 3.42586
  CHANNELS 6 Xposition Yposition Zposition Zrotation Xrotation Yrotation
  JOINT Chest
  {
    OFFSET 0 8.7983 -4.7612
    CHANNELS 6 Xposition Yposition Zposition Zrotation Xrotation Yrotation
    JOINT Chest2
    {
      OFFSET 0 8.0291 0.4195
      CHANNELS 6 Xposition Yposition Zposition Zrotation Xrotation Yrotation
      JOINT Chest3
      {
        OFFSET 0 9.9351 -2.2114
        CHANNELS 6 Xposition Yposition Zposition Zrotation Xrotation Yrotation
        JOINT Neck
        {
          OFFSET 0 22.3885 -0.4656
          CHANNELS 6 Xposition Yposition Zposition Zrotation Xrotation Yrotation
          JOINT Head
          {
            OFFSET -0.0001 12.643 3.4389
            CHANNELS 6 Xposition Yposition Zposition Zrotation Xrotation Yrotation
            End Site
            {
              OFFSET 0.0001 17.6655 0.5274
            }
          }
        }
        JOINT LeftCollar
        {
          OFFSET 2.2603 21.606 7.4023
          CHANNELS 6 Xposition Yposition Zposition Zrotation Xrotation Yrotation
          JOINT LeftShoulder
          {
            OFFSET 13.5163 -1.1332 -5.0146
            CHANNELS 6 Xposition Yposition Zposition Zrotation Xrotation Yrotation
            JOINT LeftElbow
            {
              OFFSET -0.0995 -28.05 -0.2431
              CHANNELS 6 Xposition Yposition Zposition Zrotation Xrotation Yrotation
              JOINT LeftWrist
              {
                OFFSET 0.0679 -23.3996 -0.1402
                CHANNELS 6 Xposition Yposition Zposition Zrotation Xrotation Yrotation
                JOINT LeftFinger1
                {
                  OFFSET 0.7932 -9.069 2.5189
                  CHANNELS 6 Xposition Yposition Zposition Zrotation Xrotation Yrotation
                  JOINT LeftFinger11
                  {
                    OFFSET -0.8272 -3.3923 0.5977
                    CHANNELS 6 Xposition Yposition Zposition Zrotation Xrotation Yrotation
                    JOINT LeftFinger12
                    {
                      OFFSET -0.5649 -2.3158 0.4082
                      CHANNELS 6 Xposition Yposition Zposition Zrotation Xrotation Yrotation
                      End Site
                      {
                        OFFSET -0.4919 -1.6479 0.2673
                      }
                    }
                  }
                }
                JOINT LeftFinger2
                {
                  OFFSET 0.9159 -9.2044 0.2193
                  CHANNELS 6 Xposition Yposition Zposition Zrotation Xrotation Yrotation
                  JOINT LeftFinger21
                  {
                    OFFSET 0.0117 -4.1944 -0.0248
                    CHANNELS 6 Xposition Yposition Zposition Zrotation Xrotation Yrotation
                    JOINT LeftFinger22
                    {
                      OFFSET 0.0071 -2.3249 -0.0142
                      CHANNELS 6 Xposition Yposition Zposition Zrotation Xrotation Yrotation
                      End Site
                      {
                        OFFSET -0.1475 -2.0882 0.0028
                      }
                    }
                  }
                }
                JOINT LeftFinger3
                {
                  OFFSET 0.6113 -8.7231 -2.0637
                  CHANNELS 6 Xposition Yposition Zposition Zrotation Xrotation Yrotation
                  JOINT LeftFinger31
                  {
                    OFFSET -0.1927 -3.8059 -0.2383
                    CHANNELS 6 Xposition Yposition Zposition Zrotation Xrotation Yrotation
                    JOINT LeftFinger32
                    {
                      OFFSET -0.1091 -2.1688 -0.1362
                      CHANNELS 6 Xposition Yposition Zposition Zrotation Xrotation Yrotation
                      End Site
                      {
                        OFFSET -0.2358 -1.9176 -0.0906
                      }
                    }
                  }
                }
                JOINT LeftFinger4
                {
                  OFFSET -0.6151 -8.0947 -3.5641
                  CHANNELS 6 Xposition Yposition Zposition Zrotation Xrotation Yrotation
                  JOINT LeftFinger41
                  {
                    OFFSET -0.4882 -2.341 -0.6462
                    CHANNELS 6 Xposition Yposition Zposition Zrotation Xrotation Yrotation
                    JOINT LeftFinger42
                    {
                      OFFSET -0.3575 -1.7167 -0.4742
                      CHANNELS 6 Xposition Yposition Zposition Zrotation Xrotation Yrotation
                      End Site
                      {
                        OFFSET -0.4187 -1.5237 -0.3496
                      }
                    }
                  }
                }
                JOINT LeftFinger0
                {
                  OFFSET -1.42 -1.8761 1.4223
                  CHANNELS 6 Xposition Yposition Zposition Zrotation Xrotation Yrotation
                  JOINT LeftFinger01
                  {
                    OFFSET -1.1471 -3.4929 2.6334
                    CHANNELS 6 Xposition Yposition Zposition Zrotation Xrotation Yrotation
                    JOINT LeftFinger02
                    {
                      OFFSET -0.823 -2.3 1.6571
                      CHANNELS 6 Xposition Yposition Zposition Zrotation Xrotation Yrotation
                      End Site
                      {
                        OFFSET -0.5822 -1.6914 1.1582
                      }
                    }
                  }
                }
              }
            }
          }
        }
        JOINT RightCollar
        {
          OFFSET -2.2603 21.606 7.4023
          CHANNELS 6 Xposition Yposition Zposition Zrotation Xrotation Yrotation
          JOINT RightShoulder
          {
            OFFSET -13.5187 -1.1334 -5.0155
            CHANNELS 6 Xposition Yposition Zposition Zrotation Xrotation Yrotation
            JOINT RightElbow
            {
              OFFSET 0.0994 -28.0499 -0.2431
              CHANNELS 6 Xposition Yposition Zposition Zrotation Xrotation Yrotation
              JOINT RightWrist
              {
                OFFSET -0.0679 -23.3996 -0.1402
                CHANNELS 6 Xposition Yposition Zposition Zrotation Xrotation Yrotation
                JOINT RightFinger1
                {
                  OFFSET -0.7932 -9.0691 2.5189
                  CHANNELS 6 Xposition Yposition Zposition Zrotation Xrotation Yrotation
                  JOINT RightFinger11
                  {
                    OFFSET 0.8272 -3.3923 0.5977
                    CHANNELS 6 Xposition Yposition Zposition Zrotation Xrotation Yrotation
                    JOINT RightFinger12
                    {
                      OFFSET 0.565 -2.3158 0.4082
                      CHANNELS 6 Xposition Yposition Zposition Zrotation Xrotation Yrotation
                      End Site
                      {
                        OFFSET 0.4919 -1.6479 0.2673
                      }
                    }
                  }
                }
                JOINT RightFinger2
                {
                  OFFSET -0.916 -9.2044 0.2193
                  CHANNELS 6 Xposition Yposition Zposition Zrotation Xrotation Yrotation
                  JOINT RightFinger21
                  {
                    OFFSET -0.0117 -4.1944 -0.0248
                    CHANNELS 6 Xposition Yposition Zposition Zrotation Xrotation Yrotation
                    JOINT RightFinger22
                    {
                      OFFSET -0.0071 -2.3249 -0.0142
                      CHANNELS 6 Xposition Yposition Zposition Zrotation Xrotation Yrotation
                      End Site
                      {
                        OFFSET 0.1475 -2.0882 0.0028
                      }
                    }
                  }
                }
                JOINT RightFinger3
                {
                  OFFSET -0.6113 -8.7231 -2.0637
                  CHANNELS 6 Xposition Yposition Zposition Zrotation Xrotation Yrotation
                  JOINT RightFinger31
                  {
                    OFFSET 0.1927 -3.8059 -0.2383
                    CHANNELS 6 Xposition Yposition Zposition Zrotation Xrotation Yrotation
                    JOINT RightFinger32
                    {
                      OFFSET 0.1091 -2.1688 -0.1362
                      CHANNELS 6 Xposition Yposition Zposition Zrotation Xrotation Yrotation
                      End Site
                      {
                        OFFSET 0.2358 -1.9176 -0.0906
                      }
                    }
                  }
                }
                JOINT RightFinger4
                {
                  OFFSET 0.6151 -8.0947 -3.564
                  CHANNELS 6 Xposition Yposition Zposition Zrotation Xrotation Yrotation
                  JOINT RightFinger41
                  {
                    OFFSET 0.4882 -2.341 -0.6462
                    CHANNELS 6 Xposition Yposition Zposition Zrotation Xrotation Yrotation
                    JOINT RightFinger42
                    {
                      OFFSET 0.3574 -1.7166 -0.4742
                      CHANNELS 6 Xposition Yposition Zposition Zrotation Xrotation Yrotation
                      End Site
                      {
                        OFFSET 0.4187 -1.5237 -0.3496
                      }
                    }
                  }
                }
                JOINT RightFinger0
                {
                  OFFSET 1.4199 -1.8761 1.4221
                  CHANNELS 6 Xposition Yposition Zposition Zrotation Xrotation Yrotation
                  JOINT RightFinger01
                  {
                    OFFSET 1.1472 -3.4929 2.6336
                    CHANNELS 6 Xposition Yposition Zposition Zrotation Xrotation Yrotation
                    JOINT RightFinger02
                    {
                      OFFSET 0.8229 -2.3 1.6571
                      CHANNELS 6 Xposition Yposition Zposition Zrotation Xrotation Yrotation
                      End Site
                      {
                        OFFSET 0.5822 -1.6914 1.1582
                      }
                    }
                  }
                }
              }
            }
          }
        }
      }
    }
  }
  JOINT RightHip
  {
    OFFSET -9.412 3.9771 -0.7758
    CHANNELS 6 Xposition Yposition Zposition Zrotation Xrotation Yrotation
    JOINT RightKnee
    {
      OFFSET -0.7531 -40.938 0
      CHANNELS 6 Xposition Yposition Zposition Zrotation Xrotation Yrotation
      JOINT RightAnkle
      {
        OFFSET 0 -40.1986 0
        CHANNELS 6 Xposition Yposition Zposition Zrotation Xrotation Yrotation
        JOINT RightToe
        {
          OFFSET 0 -4.4182 9.239
          CHANNELS 6 Xposition Yposition Zposition Zrotation Xrotation Yrotation
          End Site
          {
            OFFSET 0 0 6.1981
          }
        }
      }
    }
  }
  JOINT LeftHip
  {
    OFFSET 9.4119 3.9773 -0.7758
    CHANNELS 6 Xposition Yposition Zposition Zrotation Xrotation Yrotation
    JOINT LeftKnee
    {
      OFFSET 0.7532 -40.9383 0
      CHANNELS 6 Xposition Yposition Zposition Zrotation Xrotation Yrotation
      JOINT LeftAnkle
      {
        OFFSET 0 -40.1986 0
        CHANNELS 6 Xposition Yposition Zposition Zrotation Xrotation Yrotation
        JOINT LeftToe
        {
          OFFSET 0 -4.4182 9.239
          CHANNELS 6 Xposition Yposition Zposition Zrotation Xrotation Yrotation
          End Site
          {
            OFFSET 0 0 6.1981
          }
        }
      }
    }
  }
}
MOTION
Frames:	4
Frame Time:	0.0333333
-23.7392 -0.239342 -26.2265 -90.042 82.8858 0.0337519 0 8.7983 -4.7612 10.066 7.15102 0.551981 0 8.0291 0.4195 20.3026 14.2874 -0.178018 -8.88179e-016 9.9351 -2.2114 20.3026 14.2873 -0.178007 0 22.3885 -0.4656 -3.53835 -16.4889 19.907 -0.0001 12.643 3.4389 -1.08792 -42.526 7.97386 2.2603 21.606 7.4023 3.88794 3.14764 29.1308 13.5163 -1.1332 -5.0146 73.7049 -11.3259 -23.4419 -0.0995 -28.05 -0.2431 86.7757 -56.0661 57.7765 0.0679 -23.3996 -0.1402 19.1731 8.6837 0.188949 0.7932 -9.069 2.5189 0 3.18055e-015 -0 -0.8272 -3.3923 0.5977 3.18055e-015 0 1.59028e-015 -0.5649 -2.3158 0.4082 -0 0 4.77083e-015 0.9159 -9.2044 0.2193 0 3.18055e-015 -0 0.0117 -4.1944 -0.0248 -0.0128203 0.0023282 8.69849e-005 0.0071 -2.3249 -0.0142 1.64265e-007 -1.26597e-006 1.09529e-007 0.6113 -8.7231 -2.0637 0 3.18055e-015 -0 -0.1927 -3.8059 -0.2383 -0.0160229 0.00299247 0.000858116 -0.1091 -2.1688 -0.1362 7.95139e-016 6.36111e-015 -3.18055e-015 -0.6151 -8.0947 -3.5641 0 3.18055e-015 -0 -0.4882 -2.341 -0.6462 -0.0126137 0.00312569 0.00283864 -0.3575 -1.7167 -0.4742 -1.59028e-015 -3.18055e-015 -3.18055e-015 -1.42 -1.8761 1.4223 0 3.18055e-015 -0 -1.1471 -3.4929 2.6334 3.18055e-015 0 1.59028e-015 -0.823 -2.3 1.6571 -0 0 4.77083e-015 -2.2603 21.606 7.4023 -0.712037 1.53852 21.7589 -13.5187 -1.1334 -5.0155 -44.2265 51.2151 -76.4504 0.0994 -28.0499 -0.2431 43.9376 7.0576 18.2725 -0.0679 -23.3996 -0.1402 15.1572 4.89213 -3.45718 -0.7932 -9.0691 2.5189 4.77083e-015 -3.18055e-015 -1.59028e-015 0.8272 -3.3923 0.5977 -1.76556e-031 -6.36111e-015 -1.59028e-015 0.565 -2.3158 0.4082 -6.49282e-007 -3.28925e-006 -5.22578e-007 -0.916 -9.2044 0.2193 4.77083e-015 -3.18055e-015 -1.59028e-015 -0.0117 -4.1944 -0.0248 0.0129427 0.00232343 -8.73542e-005 -0.0071 -2.3249 -0.0142 -3.53113e-031 3.18055e-015 6.36111e-015 -0.6113 -8.7231 -2.0637 4.77083e-015 -3.18055e-015 -1.59028e-015 0.1927 -3.8059 -0.2383 0.0163256 0.00303212 -0.000874496 0.1091 -2.1688 -0.1362 -8.82781e-031 6.36111e-015 7.95139e-015 0.6151 -8.0947 -3.564 4.77083e-015 -3.18055e-015 -1.59028e-015 0.4882 -2.341 -0.6462 0.0146111 0.00369397 -0.00326829 0.3574 -1.7166 -0.4742 4.77083e-015 -6.36111e-015 4.77083e-015 1.4199 -1.8761 1.4221 4.77083e-015 -3.18055e-015 -1.59028e-015 1.1472 -3.4929 2.6336 -1.76556e-031 -6.36111e-015 -1.59028e-015 0.8229 -2.3 1.6571 -6.49282e-007 -3.28925e-006 -5.22578e-007 -9.412 3.9771 -0.7758 69.5653 -84.7104 95.6571 -0.7531 -40.938 -3.55271e-015 73.8051 42.0676 -76.0699 -3.55271e-015 -40.1986 7.10543e-015 14.7391 2.55301 13.9716 0 -4.4182 9.239 5.14627e-006 -1.82034e-006 -4.15478e-006 9.4119 3.9773 -0.7758 -0.875758 -63.0328 22.1292 0.7532 -40.9383 0 34.0514 66.1899 -31.6203 -1.77636e-015 -40.1986 0 -2.24677 11.3818 -2.20393 3.55271e-015 -4.4182 9.239 3.18055e-015 3.18055e-015 3.97569e-016 
-23.708 -0.239342 -26.1796 -90.0415 83.1361 0.0334763 -2.77556e-017 8.7983 -4.7612 10.0782 7.05169 0.641804 0 8.0291 0.4195 20.3105 14.106 0.019255 0 9.9351 -2.2114 20.3105 14.1059 0.019262 2.66454e-015 22.3885 -0.4656 -3.44907 -16.4157 19.8303 -0.0001 12.643 3.4389 -1.13801 -42.3969 7.82255 2.2603 21.606 7.4023 3.80977 3.05723 28.6212 13.5163 -1.1332 -5.0146 73.705 -11.3259 -23.4418 -0.0995 -28.05 -0.2431 87.0203 -56.0837 57.9775 0.0679 -23.3996 -0.1402 19.1731 8.6837 0.188941 0.7932 -9.069 2.5189 3.18055e-015 -3.18055e-015 -1.59028e-015 -0.8272 -3.3923 0.5977 2.38542e-015 -3.18055e-015 -3.18055e-015 -0.5649 -2.3158 0.4082 2.38542e-015 0 -3.18055e-015 0.9159 -9.2044 0.2193 3.18055e-015 -3.18055e-015 -1.59028e-015 0.0117 -4.1944 -0.0248 -0.012827 0.0023268 8.71855e-005 0.0071 -2.3249 -0.0142 -8.82781e-032 -3.18055e-015 -1.59028e-015 0.6113 -8.7231 -2.0637 3.18055e-015 -3.18055e-015 -1.59028e-015 -0.1927 -3.8059 -0.2383 -0.0160542 0.00300279 0.000854957 -0.1091 -2.1688 -0.1362 7.95139e-016 3.18055e-015 -3.18055e-015 -0.6151 -8.0947 -3.5641 3.18055e-015 -3.18055e-015 -1.59028e-015 -0.4882 -2.341 -0.6462 -0.0125803 0.00312413 0.00282458 -0.3575 -1.7167 -0.4742 0 3.18055e-015 -0 -1.42 -1.8761 1.4223 3.18055e-015 -3.18055e-015 -1.59028e-015 -1.1471 -3.4929 2.6334 2.38542e-015 -3.18055e-015 -3.18055e-015 -0.823 -2.3 1.6571 2.38542e-015 0 -3.18055e-015 -2.2603 21.606 7.4023 -0.076619 1.87046 21.1838 -13.5187 -1.1334 -5.0155 -44.3363 51.0895 -76.3969 0.0994 -28.0499 -0.2431 43.6165 7.01614 17.646 -0.0679 -23.3996 -0.1402 15.5698 4.95592 -3.42301 -0.7932 -9.06911 2.5189 4.77083e-015 3.18055e-015 6.36111e-015 0.8272 -3.3923 0.5977 -2.64834e-031 3.18055e-015 4.77083e-015 0.565 -2.3158 0.4082 5.59796e-007 6.14056e-007 -2.42899e-006 -0.916 -9.2044 0.2193 4.77083e-015 3.18055e-015 6.36111e-015 -0.0117 -4.1944 -0.0248 0.0129332 0.00231498 -9.2616e-005 -0.0071 -2.3249 -0.0142 -5.79324e-006 -3.40465e-006 -4.76926e-006 -0.6113 -8.7231 -2.0637 4.77083e-015 3.18055e-015 6.36111e-015 0.1927 -3.8059 -0.2383 0.0163353 0.00303515 -0.000873908 0.1091 -2.1688 -0.1362 1.76556e-031 3.18055e-015 -3.18055e-015 0.6151 -8.0947 -3.564 4.77083e-015 3.18055e-015 6.36111e-015 0.4882 -2.341 -0.6462 0.0146342 0.00369467 -0.00328535 0.3574 -1.7166 -0.4742 -3.13539e-006 -2.60896e-006 3.09349e-007 1.4199 -1.8761 1.4221 4.77083e-015 3.18055e-015 6.36111e-015 1.1472 -3.4929 2.6336 -2.64834e-031 3.18055e-015 4.77083e-015 0.8229 -2.3 1.6571 5.59796e-007 6.14056e-007 -2.42899e-006 -9.412 3.9771 -0.7758 70.8122 -84.8159 96.8283 -0.7531 -40.938 3.55271e-015 73.828 42.0719 -76.0878 3.55271e-015 -40.1986 -7.10543e-015 14.666 2.59289 14.0741 0 -4.4182 9.239 2.15099e-006 -1.55076e-006 -4.32376e-006 9.4119 3.9773 -0.7758 -0.834444 -63.2015 22.1886 0.7532 -40.9383 8.88178e-015 33.8286 66.0927 -31.4182 3.55271e-015 -40.1986 0 -2.23746 11.3975 -2.21464 1.77636e-015 -4.4182 9.239 -1.59028e-015 -1.59028e-015 -7.95139e-016 
-23.6768 -0.239342 -26.1326 -90.0408 83.3864 0.0329877 -2.77556e-017 8.7983 -4.7612 10.0902 6.95234 0.731696 0 8.0291 0.4195 20.3184 13.9246 0.216582 0 9.9351 -2.2114 20.3184 13.9246 0.216582 2.22045e-015 22.3885 -0.4656 -3.35962 -16.3425 19.7536 -0.0001 12.643 3.4389 -1.18756 -42.2677 7.67161 2.2603 21.606 7.4023 3.73088 2.96752 28.1117 13.5163 -1.1332 -5.0146 73.7049 -11.3259 -23.4419 -0.0995 -28.05 -0.2431 87.2651 -56.1008 58.1785 0.0679 -23.3996 -0.1402 19.1731 8.6837 0.188918 0.7932 -9.069 2.5189 -8.82781e-032 3.18055e-015 1.59028e-015 -0.8272 -3.3923 0.5977 0 6.36111e-015 -0 -0.5649 -2.3158 0.4082 1.59028e-015 6.36111e-015 -0 0.9159 -9.2044 0.2193 -8.82781e-032 3.18055e-015 1.59028e-015 0.0117 -4.1944 -0.0248 -0.0128235 0.00232448 8.22251e-005 0.0071 -2.3249 -0.0142 -7.95139e-016 -6.36111e-015 -3.18055e-015 0.6113 -8.7231 -2.0637 -8.82781e-032 3.18055e-015 1.59028e-015 -0.1927 -3.8059 -0.2383 -0.0160681 0.0029987 0.000856877 -0.1091 -2.1688 -0.1362 7.95139e-016 1.69469e-006 -1.59028e-015 -0.6151 -8.0947 -3.5641 -8.82781e-032 3.18055e-015 1.59028e-015 -0.4882 -2.341 -0.6462 -0.0125908 0.00312152 0.00282897 -0.3575 -1.7167 -0.4742 1.76556e-031 6.36111e-015 -1.59028e-015 -1.42 -1.8761 1.4223 -8.82781e-032 3.18055e-015 1.59028e-015 -1.1471 -3.4929 2.6334 0 6.36111e-015 -0 -0.823 -2.3 1.6571 1.59028e-015 6.36111e-015 -0 -2.2603 21.606 7.4023 0.562085 2.1959 20.6052 -13.5187 -1.1334 -5.0155 -44.4455 50.9641 -76.344 0.0994 -28.0499 -0.2431 43.2887 6.97366 17.031 -0.0679 -23.3996 -0.1402 15.9823 5.02004 -3.38938 -0.7932 -9.0691 2.5189 -6.36111e-015 -3.18055e-015 1.59028e-015 0.8272 -3.3923 0.5977 -7.95139e-015 -3.18055e-015 1.59028e-015 0.565 -2.3158 0.4082 -6.36111e-015 0 6.36111e-015 -0.916 -9.2044 0.2193 -6.36111e-015 -3.18055e-015 1.59028e-015 -0.0117 -4.1944 -0.0248 0.0129605 0.00232373 -9.18829e-005 -0.0071 -2.3249 -0.0142 1.59028e-015 6.36111e-015 -6.36111e-015 -0.6113 -8.7231 -2.0637 -6.36111e-015 -3.18055e-015 1.59028e-015 0.1927 -3.8059 -0.2383 0.0163502 0.00303537 -0.000876024 0.1091 -2.1688 -0.1362 4.77083e-015 -3.18055e-015 -0 0.6151 -8.0947 -3.564 -6.36111e-015 -3.18055e-015 1.59028e-015 0.4882 -2.341 -0.6462 0.0145741 0.00367285 -0.00325928 0.3574 -1.7166 -0.4742 9.41939e-006 1.99967e-006 -1.06088e-005 1.4199 -1.8761 1.4221 -6.36111e-015 -3.18055e-015 1.59028e-015 1.1472 -3.4929 2.6336 -7.95139e-015 -3.18055e-015 1.59028e-015 0.8229 -2.3 1.6571 -6.36111e-015 0 6.36111e-015 -9.412 3.9771 -0.7758 72.1415 -84.9194 98.0817 -0.7531 -40.938 0 73.8542 42.0769 -76.1092 3.55271e-015 -40.1986 1.42109e-014 14.5929 2.63266 14.1765 -1.42109e-014 -4.4182 9.239 1.15212e-005 -8.18883e-006 1.4071e-005 9.4119 3.9773 -0.7758 -0.792398 -63.3699 22.2487 0.7532 -40.9383 -8.88179e-015 33.6073 65.9951 -31.2175 8.88178e-016 -40.1986 -1.42109e-014 -2.22807 11.4132 -2.22538 0 -4.4182 9.239 5.8923e-006 -9.9938e-007 4.74939e-006 
-23.6454 -0.239342 -26.0854 -90.0403 83.6367 0.0327235 -2.77556e-017 8.7983 -4.7612 10.102 6.85301 0.821632 -4.44089e-016 8.0291 0.4195 20.3262 13.7433 0.413937 0 9.9351 -2.2114 20.3262 13.7433 0.413949 1.33227e-015 22.3885 -0.4656 -3.2701 -16.2694 19.6767 -0.0001 12.643 3.4389 -1.23661 -42.1383 7.521 2.2603 21.606 7.4023 3.65117 2.87854 27.6021 13.5163 -1.1332 -5.0146 73.7049 -11.3259 -23.4419 -0.0995 -28.05 -0.2431 87.5101 -56.1175 58.3797 0.0679 -23.3996 -0.1402 19.1731 8.68373 0.188934 0.793199 -9.06901 2.5189 1.59028e-015 0 -1.59028e-015 -0.827199 -3.3923 0.5977 -7.95139e-016 -3.18055e-015 -1.59028e-015 -0.5649 -2.3158 0.4082 -7.95139e-016 3.18055e-015 -0 0.915899 -9.20441 0.2193 1.59028e-015 0 -1.59028e-015 0.0117 -4.1944 -0.0248 -0.0128029 0.00232213 8.8546e-005 0.0071 -2.3249 -0.0142 7.95139e-016 -3.18055e-015 -3.18055e-015 0.6113 -8.72311 -2.0637 1.59028e-015 0 -1.59028e-015 -0.1927 -3.8059 -0.2383 -0.0160282 0.00299306 0.000857378 -0.1091 -2.1688 -0.1362 0 3.18055e-015 -0 -0.6151 -8.09471 -3.5641 1.59028e-015 0 -1.59028e-015 -0.4882 -2.341 -0.6462 -0.0125747 0.00311707 0.00282509 -0.3575 -1.7167 -0.4742 -1.59028e-015 2.8625e-014 1.59028e-015 -1.42 -1.8761 1.4223 1.59028e-015 0 -1.59028e-015 -1.1471 -3.4929 2.6334 -7.95139e-016 -3.18055e-015 -1.59028e-015 -0.822999 -2.3 1.6571 -7.95139e-016 3.18055e-015 -0 -2.2603 21.606 7.4023 1.20388 2.5147 20.0231 -13.5187 -1.1334 -5.0155 -44.5543 50.8385 -76.2916 0.0994 -28.0499 -0.2431 42.9542 6.93015 16.4275 -0.0679 -23.3996 -0.1402 16.3949 5.08453 -3.35631 -0.7932 -9.06911 2.5189 -4.77083e-015 -3.18055e-015 6.36111e-015 0.8272 -3.3923 0.5977 3.18055e-015 9.54166e-015 -1.59028e-015 0.565 -2.3158 0.4082 1.59028e-015 3.18055e-015 1.59028e-015 -0.916 -9.20441 0.2193 -4.77083e-015 -3.18055e-015 6.36111e-015 -0.0117 -4.1944 -0.0248 0.0129398 0.00231965 -8.46016e-005 -0.0071 -2.3249 -0.0142 -6.36111e-015 9.54166e-015 7.95139e-015 -0.6113 -8.72311 -2.0637 -4.77083e-015 -3.18055e-015 6.36111e-015 0.1927 -3.8059 -0.2383 0.0163214 0.00302385 -0.000868049 0.1091 -2.1688 -0.1362 1.25623e-006 9.76625e-007 4.12271e-006 0.6151 -8.09471 -3.564 -4.77083e-015 -3.18055e-015 6.36111e-015 0.4882 -2.341 -0.6462 0.0145992 0.00368466 -0.00326498 0.3574 -1.7166 -0.4742 -4.77083e-015 -1.27222e-014 3.18055e-015 1.4199 -1.8761 1.4221 -4.77083e-015 -3.18055e-015 6.36111e-015 1.1472 -3.4929 2.6336 3.18055e-015 9.54166e-015 -1.59028e-015 0.8229 -2.3 1.6571 1.59028e-015 3.18055e-015 1.59028e-015 -9.412 3.9771 -0.7758 73.4947 -85.0198 99.3592 -0.7531 -40.938 -3.55271e-015 73.8774 42.0812 -76.1274 -3.55271e-015 -40.1986 1.42109e-014 14.5197 2.67233 14.279 0 -4.4182 9.239 -8.52133e-006 1.19206e-005 -1.1424e-005 9.4119 3.9773 -0.7758 -0.749535 -63.5384 22.3096 0.7532 -40.9383 -3.55271e-015 33.388 65.8972 -31.0188 8.88179e-016 -40.1986 -7.10543e-015 -2.21879 11.4288 -2.2361 0 -4.4182 9.239 -7.34029e-006 2.40154e-006 -4.38322e-006 
